<svg xmlns="http://www.w3.org/2000/svg" viewBox="0 16.5 235.3000030517578 36.349998474121094" data-asc="1.05" width="235.3000030517578" height="36.349998474121094"><defs/><g fill="#000000"><g transform="translate(0, 0)"><path d="M11.10 44.10L21.80 44.10L21.80 52.50L0 52.50L0 17.10L11.10 17.10L11.10 44.10ZM48 47.15L36.20 47.15L34.45 52.50L22.80 52.50L35.75 17.10L48.55 17.10L61.45 52.50L49.75 52.50L48 47.15M45.30 38.80L42.10 28.95L38.90 38.80L45.30 38.80ZM97.45 17.10L97.45 25.90L83.55 25.90L83.55 30.80L93.55 30.80L93.55 39.15L83.55 39.15L83.55 52.50L72.45 52.50L72.45 17.10L97.45 17.10ZM118.45 52.85Q113.45 52.85 109.28 50.50Q105.10 48.15 102.65 44Q100.20 39.85 100.20 34.65Q100.20 29.45 102.65 25.30Q105.10 21.15 109.28 18.82Q113.45 16.50 118.45 16.50Q123.45 16.50 127.60 18.82Q131.75 21.15 134.18 25.30Q136.60 29.45 136.60 34.65Q136.60 39.85 134.18 44Q131.75 48.15 127.58 50.50Q123.40 52.85 118.45 52.85M118.45 42.50Q121.75 42.50 123.55 40.38Q125.35 38.25 125.35 34.65Q125.35 31 123.55 28.88Q121.75 26.75 118.45 26.75Q115.10 26.75 113.30 28.88Q111.50 31 111.50 34.65Q111.50 38.25 113.30 40.38Q115.10 42.50 118.45 42.50ZM158.40 52.50L151.75 39.80L151.70 39.80L151.70 52.50L140.60 52.50L140.60 17.10L157.10 17.10Q161.40 17.10 164.45 18.63Q167.50 20.15 169.03 22.77Q170.55 25.40 170.55 28.70Q170.55 32.25 168.58 35Q166.60 37.75 162.90 38.95L170.60 52.50L158.40 52.50M151.70 32.40L156.10 32.40Q157.70 32.40 158.50 31.67Q159.30 30.95 159.30 29.40Q159.30 28 158.48 27.20Q157.65 26.40 156.10 26.40L151.70 26.40L151.70 32.40ZM195.80 29.20Q195.15 28.15 193.95 27.57Q192.75 27 191.05 27Q187.85 27 186.10 29.07Q184.35 31.15 184.35 34.75Q184.35 38.90 186.30 40.95Q188.25 43 192.30 43Q196.15 43 198.50 39.90L189.65 39.90L189.65 32.05L207.70 32.05L207.70 43.15Q205.40 47.10 201.35 49.92Q197.30 52.75 191.10 52.75Q185.60 52.75 181.53 50.48Q177.45 48.20 175.28 44.10Q173.10 40 173.10 34.75Q173.10 29.50 175.28 25.40Q177.45 21.30 181.50 19.02Q185.55 16.75 191.00 16.75Q197.95 16.75 202.33 20.10Q206.70 23.45 207.50 29.20L195.80 29.20ZM222.80 25.95L222.80 30.30L233.80 30.30L233.80 38.65L222.80 38.65L222.80 43.65L235.30 43.65L235.30 52.50L211.70 52.50L211.70 17.10L235.30 17.10L235.30 25.95L222.80 25.95Z"/></g></g></svg>